<svg width="60" height="59" viewBox="0 0 60 59" fill="none" xmlns="http://www.w3.org/2000/svg">
<path d="M33.906 36.632L36.696 33.718C41.098 35.454 46.492 38.43 49.344 40.662L46.492 43.824C43.64 41.592 38.246 38.43 33.906 36.632ZM27.148 48.412L29.938 45.126C38.184 47.358 48.352 51.512 53.994 54.612L51.204 58.332C45.748 54.984 35.518 50.768 27.148 48.412ZM35.146 0.919998L39.734 1.726C36.696 8.484 31.984 15.986 24.854 21.876C24.172 20.946 22.684 19.582 21.692 18.962C28.264 13.692 32.852 6.624 35.146 0.919998ZM34.34 7.43H51.204V11.522H32.294L34.34 7.43ZM49.84 7.43H50.77L51.576 7.244L54.49 8.856C49.096 22.124 37.75 31.548 26.28 36.57C25.722 35.516 24.296 33.718 23.366 32.912C34.526 28.448 45.376 19.644 49.84 8.298V7.43ZM33.534 10.964C38.556 20.698 48.6 29.626 59.326 33.532C58.334 34.4 56.97 36.136 56.288 37.314C45.376 32.788 35.394 23.24 29.814 12.39L33.534 10.964ZM11.09 0.981997L15.182 2.594C12.826 7.12 9.912 12.638 7.494 16.048L4.27 14.56C6.626 11.026 9.478 5.074 11.09 0.981997ZM18.034 8.05L21.94 9.786C17.724 16.916 11.772 25.906 7.184 31.362L4.332 29.75C8.92 24.17 14.748 14.746 18.034 8.05ZM1.294 14.002L3.65 10.964C7.122 13.878 11.028 17.908 12.702 20.698L10.222 24.232C8.548 21.318 4.642 16.978 1.294 14.002ZM15.864 22.434L19.088 21.132C21.568 25.038 24.048 30.246 24.854 33.532L21.32 35.144C20.576 31.796 18.22 26.464 15.864 22.434ZM1.108 28.758C6.502 28.572 14.252 28.262 22.126 27.828L22.064 31.672C14.624 32.168 7.122 32.602 1.48 32.974L1.108 28.758ZM17.476 37.066L20.824 36.012C22.56 39.484 24.234 44.196 24.854 47.296L21.258 48.536C20.7 45.436 19.026 40.662 17.476 37.066ZM4.58 36.384L8.61 37.128C7.742 42.956 6.192 48.97 4.208 52.938C3.402 52.442 1.542 51.574 0.55 51.14C2.596 47.358 3.836 41.84 4.58 36.384ZM11.276 30.494H15.43V58.146H11.276V30.494Z" fill="black"/>
</svg>
