<svg width="56" height="58" viewBox="0 0 56 58" fill="none" xmlns="http://www.w3.org/2000/svg">
<path d="M35.82 3.02H53.056V7.298H35.82V3.02ZM35.82 17.28H53.056V21.434H35.82V17.28ZM35.758 31.726H53.18V35.942H35.758V31.726ZM50.948 3.02H55.474V51.07C55.474 53.736 54.854 55.162 53.056 55.906C51.32 56.65 48.406 56.774 43.818 56.774C43.694 55.472 43.012 53.426 42.392 52.248C45.678 52.31 48.778 52.31 49.708 52.248C50.638 52.248 50.948 51.938 50.948 51.008V3.02ZM33.898 3.02H38.3V25.526C38.3 35.074 37.556 48.466 31.976 57.27C31.17 56.402 29.31 55.038 28.256 54.604C33.464 46.296 33.898 34.516 33.898 25.526V3.02ZM1.162 8.228H30.86V12.32H1.162V8.228ZM8.478 17.838H24.164V21.62H8.478V17.838ZM8.478 27.696H24.226V31.416H8.478V27.696ZM0.356 37.678H30.86V41.832H0.356V37.678ZM6.432 0.663996H10.71V39.352H6.432V0.663996ZM21.994 0.663996H26.272V39.352H21.994V0.663996ZM8.974 43.196L13.438 44.436C11.144 49.148 7.548 53.922 4.2 57.022C3.332 56.278 1.534 54.914 0.418 54.294C3.89 51.504 7.114 47.35 8.974 43.196ZM17.902 45.118L21.498 43.196C23.916 45.986 26.83 49.83 28.07 52.372L24.288 54.604C23.11 52.124 20.32 48.032 17.902 45.118Z" fill="black"/>
</svg>
