<svg width="56" height="59" viewBox="0 0 56 59" fill="none" xmlns="http://www.w3.org/2000/svg">
<path d="M1.836 15.428H54.102V26.65H49.514V19.148H6.3V26.216H1.836V15.428ZM47.778 0.919998L50.878 4.144C39.098 6.562 20.312 7.802 4.812 8.174C4.75 7.182 4.254 5.57 3.882 4.64C19.072 4.206 37.734 2.966 47.778 0.919998ZM9.462 8.794L13.182 7.244C15.104 9.414 16.964 12.39 17.708 14.56L13.678 16.234C13.058 14.188 11.26 11.026 9.462 8.794ZM22.978 7.616L26.822 6.252C28.558 8.608 30.232 11.832 30.728 14.064L26.636 15.49C26.202 13.382 24.652 10.034 22.978 7.616ZM39.594 24.356L42.818 22.124C46.414 24.852 50.63 28.882 52.552 31.672L49.142 34.214C47.282 31.424 43.128 27.208 39.594 24.356ZM22.172 21.132L24.528 18.59C27.752 19.954 31.844 22.124 33.828 23.798L31.41 26.588C29.364 24.914 25.458 22.558 22.172 21.132ZM43.81 6.19L48.274 7.926C46.042 11.212 43.376 14.808 41.268 17.226L37.858 15.738C39.78 13.134 42.446 9.042 43.81 6.19ZM40.09 37.748H41.144L41.95 37.624L44.864 39.546C36.99 51.078 20.064 55.976 2.766 58.146C2.332 57.03 1.154 55.17 0.286 54.24C17.336 52.628 33.58 48.102 40.09 38.492V37.748ZM16.964 40.228C24.094 48.288 39.222 52.628 55.962 53.93C54.97 54.922 53.854 56.844 53.234 58.084C36.37 56.348 21.242 51.388 13.306 41.778L16.964 40.228ZM21.18 32.602L25.272 34.09C20.126 40.352 11.942 45.684 4.44 49.032C3.696 48.164 2.084 46.614 1.154 45.932C8.842 42.956 16.716 38.182 21.18 32.602ZM17.15 22.806H21.49V28.696C21.49 29.998 21.924 30.184 24.528 30.184C25.706 30.184 31.968 30.184 33.642 30.184C35.564 30.184 35.998 29.75 36.184 26.092C37.114 26.712 38.726 27.208 39.904 27.456C39.47 32.478 38.23 33.656 34.2 33.656C32.96 33.656 25.272 33.656 24.156 33.656C18.514 33.656 17.15 32.726 17.15 28.758V22.806ZM11.074 22.868L14.67 24.356C13.182 28.386 10.826 32.54 6.734 34.958L3.448 32.292C7.168 30.246 9.71 26.588 11.074 22.868ZM18.328 37.748H41.144V41.22H14.856L18.328 37.748Z" fill="black"/>
</svg>
