<svg width="57" height="55" viewBox="0 0 57 55" fill="none" xmlns="http://www.w3.org/2000/svg">
<path d="M14.05 38.964H18.638V48.016C18.638 49.628 19.32 49.938 22.978 49.938C24.714 49.938 33.332 49.938 35.626 49.938C38.602 49.938 39.098 49.194 39.346 43.738C40.338 44.42 42.322 45.102 43.562 45.35C42.942 52.48 41.454 54.154 36.06 54.154C34.448 54.154 24.156 54.154 22.73 54.154C15.786 54.154 14.05 52.852 14.05 48.078V38.964ZM21.118 36.856L24.094 34.128C28.744 36.236 34.386 39.646 37.238 42.312L34.138 45.412C31.41 42.746 25.83 39.15 21.118 36.856ZM43.934 40.824L47.902 38.964C51.064 42.56 54.66 47.458 56.148 50.744L51.87 52.79C50.444 49.566 47.034 44.482 43.934 40.824ZM34.634 26.068L37.734 24.704C40.71 26.874 43.934 30.222 45.298 32.64L42.012 34.128C40.71 31.71 37.61 28.3 34.634 26.068ZM7.044 39.274L11.074 40.948C9.524 44.978 7.23 49.876 4.13 53.038L0.1 50.682C3.138 47.83 5.68 43.118 7.044 39.274ZM12.81 10.382V14.102H43.004V10.382H12.81ZM12.81 3.562V7.282H43.004V3.562H12.81ZM8.408 0.275997H47.53V17.45H8.408V0.275997ZM4.068 20.674H49.452V24.084H8.532V38.158H4.068V20.674ZM11.508 29.168C18.886 29.044 30.294 28.858 41.516 28.61L41.392 31.896C30.604 32.33 19.444 32.764 11.756 32.95L11.508 29.168ZM47.406 20.674H51.87V33.57C51.87 35.616 51.56 36.608 50.072 37.228C48.646 37.91 46.414 37.91 43.128 37.91C42.88 36.732 42.322 35.306 41.764 34.252C43.996 34.314 45.918 34.314 46.538 34.314C47.22 34.314 47.406 34.128 47.406 33.57V20.674ZM25.892 1.454H30.418V30.346H25.892V1.454Z" fill="black"/>
</svg>
