<svg width="59" height="53" viewBox="0 0 59 53" fill="none" xmlns="http://www.w3.org/2000/svg">
<path d="M2.41 0.941996H57.59V5.406H2.41V0.941996ZM12.64 14.086H28.264V18.426H12.64V14.086ZM6.874 27.106L9.54 23.758C14.376 26.3 20.576 30.206 23.676 32.934L20.824 36.84C17.91 33.988 11.71 29.834 6.874 27.106ZM53.312 14.768L56.846 18.674C51.39 22.952 43.826 27.168 37.068 30.64C36.696 29.586 35.828 28.036 35.208 27.044C41.718 23.572 48.972 18.736 53.312 14.768ZM34.092 4.724H38.742V44.59C38.742 47.442 39.238 48 41.966 48C43.268 48 49.654 48 51.328 48C53.87 48 54.242 46.14 54.614 38.08C55.668 38.886 57.59 39.692 58.892 40.002C58.334 49.302 57.032 52.34 51.638 52.34C50.336 52.34 42.648 52.34 41.47 52.34C35.704 52.34 34.092 50.666 34.092 44.528V4.724ZM26.466 14.086H27.396L28.202 13.962L31.178 15.016C27.892 35.166 19.026 47.008 7.184 52.96C6.502 51.906 4.89 50.046 3.836 49.302C15.43 43.908 23.738 33.12 26.466 15.078V14.086ZM14.748 4.414L19.46 5.468C16.546 14.954 11.4 25.618 4.27 32.19C3.402 31.322 1.852 29.896 0.798 29.152C7.618 23.076 12.454 12.97 14.748 4.414Z" fill="black"/>
</svg>
